<svg width="268" height="50" viewBox="0 0 268 50" fill="none" xmlns="http://www.w3.org/2000/svg">
<rect width="268" height="50" rx="4" fill="black"/>
<path d="M50.1104 18.9639C49.5542 19.6362 48.6245 20.1343 47.8857 20.1343C47.7944 20.1343 47.7114 20.1177 47.6616 20.1094C47.6533 20.0679 47.6284 19.9434 47.6284 19.8105C47.6284 18.9639 48.0601 18.1172 48.5332 17.5859C49.1226 16.8887 50.1187 16.374 50.9487 16.3408C50.9653 16.4321 50.9736 16.5483 50.9736 16.6646C50.9736 17.5112 50.6167 18.3496 50.1104 18.9639ZM50.6914 20.3086C51.1562 20.3086 52.8413 20.3584 53.9453 21.9438C53.8457 22.0186 52.1772 22.9648 52.1772 25.0732C52.1772 27.5054 54.3022 28.377 54.3687 28.3936C54.3604 28.4517 54.0283 29.5723 53.248 30.7261C52.5425 31.7305 51.8037 32.7515 50.6914 32.7515C49.5708 32.7515 49.2803 32.0957 48.002 32.0957C46.7402 32.0957 46.292 32.7681 45.2793 32.7681C44.25 32.7681 43.5361 31.8301 42.7227 30.6846C41.7681 29.3315 41.0044 27.2314 41.0044 25.2393C41.0044 22.0518 43.0796 20.3584 45.1299 20.3584C46.209 20.3584 47.1055 21.064 47.7944 21.064C48.4419 21.064 49.4546 20.3086 50.6914 20.3086Z" fill="white"/>
<path d="M71.6362 31.2988C68.8555 31.2988 67.0874 29.9292 66.938 27.8623L66.9297 27.7461H69.0049L69.0132 27.8291C69.1128 28.8335 70.1836 29.4976 71.7026 29.4976C73.147 29.4976 74.1597 28.7837 74.1597 27.7544V27.7461C74.1597 26.8828 73.5371 26.3599 71.9932 26.0278L70.7065 25.7622C68.2578 25.2476 67.1953 24.1021 67.1953 22.3174V22.3091C67.1953 20.1675 69.0381 18.7231 71.6279 18.7231C74.2842 18.7231 75.936 20.1758 76.0854 22.1016L76.0938 22.2095H74.0435L74.0269 22.1099C73.8774 21.1802 72.9893 20.5161 71.6196 20.5244C70.2915 20.5244 69.3452 21.147 69.3452 22.168V22.1763C69.3452 23.0229 69.9512 23.5542 71.4453 23.8696L72.7319 24.1436C75.2554 24.6748 76.3096 25.6875 76.3096 27.4971V27.5054C76.3096 29.8379 74.5083 31.2988 71.6362 31.2988ZM79.1555 20.4082C78.4748 20.4082 77.9187 19.8687 77.9187 19.188C77.9187 18.5156 78.4748 17.9678 79.1555 17.9678C79.8278 17.9678 80.384 18.5156 80.384 19.188C80.384 19.8687 79.8278 20.4082 79.1555 20.4082ZM78.1179 31V21.9272H80.1848V31H78.1179ZM86.2182 34.1875C83.8276 34.1875 82.3915 33.1665 82.184 31.6392L82.1923 31.6143H84.2592L84.2675 31.6392C84.4086 32.2202 85.0976 32.627 86.2514 32.627C87.6625 32.627 88.4843 31.9712 88.4843 30.8091V29.0742H88.3432C87.8202 30.0454 86.8324 30.5767 85.579 30.5767C83.2797 30.5767 81.852 28.8003 81.852 26.2271V26.2104C81.852 23.5874 83.2797 21.7778 85.6205 21.7778C86.8739 21.7778 87.8534 22.3921 88.3681 23.4214H88.476V21.9272H90.5429V30.7759C90.5429 32.8677 88.8661 34.1875 86.2182 34.1875ZM86.2182 28.9331C87.6542 28.9331 88.5175 27.8291 88.5175 26.2271V26.2104C88.5175 24.6084 87.6459 23.4961 86.2182 23.4961C84.7821 23.4961 83.9687 24.6084 83.9687 26.2104V26.2271C83.9687 27.8291 84.7821 28.9331 86.2182 28.9331ZM92.6666 31V21.9272H94.7335V23.3135H94.8746C95.3063 22.3423 96.1779 21.7529 97.4894 21.7529C99.5148 21.7529 100.619 22.9731 100.619 25.1313V31H98.5519V25.6128C98.5519 24.2017 97.9791 23.4878 96.7257 23.4878C95.4972 23.4878 94.7335 24.3511 94.7335 25.7124V31H92.6666ZM107.838 20.4082C107.157 20.4082 106.601 19.8687 106.601 19.188C106.601 18.5156 107.157 17.9678 107.838 17.9678C108.51 17.9678 109.066 18.5156 109.066 19.188C109.066 19.8687 108.51 20.4082 107.838 20.4082ZM106.8 31V21.9272H108.867V31H106.8ZM110.999 31V21.9272H113.066V23.3135H113.207C113.639 22.3423 114.51 21.7529 115.822 21.7529C117.847 21.7529 118.951 22.9731 118.951 25.1313V31H116.885V25.6128C116.885 24.2017 116.312 23.4878 115.058 23.4878C113.83 23.4878 113.066 24.3511 113.066 25.7124V31H110.999ZM126.835 31L124.378 21.9272H126.453L127.964 28.7422H128.105L129.848 21.9272H131.815L133.575 28.7422H133.716L135.218 21.9272H137.269L134.812 31H132.645L130.877 24.4258H130.736L128.976 31H126.835ZM139.724 20.4082C139.044 20.4082 138.488 19.8687 138.488 19.188C138.488 18.5156 139.044 17.9678 139.724 17.9678C140.397 17.9678 140.953 18.5156 140.953 19.188C140.953 19.8687 140.397 20.4082 139.724 20.4082ZM138.687 31V21.9272H140.754V31H138.687ZM146.455 31.0415C144.372 31.0415 143.517 30.3442 143.517 28.5928V23.5293H142.106V21.9272H143.517V19.7026H145.617V21.9272H147.534V23.5293H145.617V28.103C145.617 29.0078 145.974 29.3896 146.837 29.3896C147.128 29.3896 147.285 29.3813 147.534 29.3564V30.9502C147.235 31.0083 146.854 31.0415 146.455 31.0415ZM149.268 31V18.416H151.335V23.3135H151.476C151.908 22.3423 152.779 21.7529 154.091 21.7529C156.116 21.7529 157.22 22.9731 157.22 25.1313V31H155.153V25.6128C155.153 24.2017 154.58 23.4878 153.327 23.4878C152.098 23.4878 151.335 24.3511 151.335 25.7124V31H149.268ZM162.704 31L166.954 19.022H169.37L173.62 31H171.379L170.374 27.9038H165.942L164.946 31H162.704ZM168.092 21.2466L166.481 26.252H169.843L168.233 21.2466H168.092ZM175.055 34.0132V21.9272H177.121V23.3467H177.263C177.761 22.3589 178.748 21.7778 180.018 21.7778C182.293 21.7778 183.746 23.5874 183.746 26.4595V26.4761C183.746 29.3647 182.318 31.1494 180.018 31.1494C178.773 31.1494 177.736 30.5352 177.263 29.5557H177.121V34.0132H175.055ZM179.371 29.4062C180.782 29.4062 181.637 28.2939 181.637 26.4761V26.4595C181.637 24.6333 180.782 23.521 179.371 23.521C177.968 23.521 177.097 24.6333 177.097 26.4512V26.4678C177.097 28.2856 177.968 29.4062 179.371 29.4062ZM185.421 34.0132V21.9272H187.488V23.3467H187.629C188.127 22.3589 189.115 21.7778 190.385 21.7778C192.659 21.7778 194.112 23.5874 194.112 26.4595V26.4761C194.112 29.3647 192.684 31.1494 190.385 31.1494C189.14 31.1494 188.102 30.5352 187.629 29.5557H187.488V34.0132H185.421ZM189.737 29.4062C191.149 29.4062 192.004 28.2939 192.004 26.4761V26.4595C192.004 24.6333 191.149 23.521 189.737 23.521C188.335 23.521 187.463 24.6333 187.463 26.4512V26.4678C187.463 28.2856 188.335 29.4062 189.737 29.4062ZM195.87 31V18.416H197.937V31H195.87ZM204.029 31.1826C201.331 31.1826 199.696 29.373 199.696 26.4844V26.4761C199.696 23.6206 201.348 21.7529 203.929 21.7529C206.511 21.7529 208.105 23.5625 208.105 26.3018V26.9824H201.763C201.788 28.6094 202.668 29.5557 204.07 29.5557C205.191 29.5557 205.83 28.9912 206.029 28.5762L206.054 28.5181H208.022L207.997 28.5928C207.706 29.7632 206.494 31.1826 204.029 31.1826ZM203.954 23.3716C202.8 23.3716 201.937 24.1519 201.779 25.5962H206.087C205.946 24.1104 205.108 23.3716 203.954 23.3716Z" fill="white"/>
</svg>
